<?xml version="1.0" ?><!DOCTYPE svg  PUBLIC '-//W3C//DTD SVG 1.1//EN'  'http://www.w3.org/Graphics/SVG/1.1/DTD/svg11.dtd'><svg height="32" version="1.1" viewBox="0 0 32 32" width="32" xmlns="http://www.w3.org/2000/svg" xmlns:xlink="http://www.w3.org/1999/xlink"><g/><path d="M25.815 29.146c-2.908 0-4.645-1.462-4.645-3.91l-0.034-3.479-0.211-5.964c0-2.881-3.141-6.419-5.065-6.419-1.926 0-5.068 3.538-5.068 6.333l0.036 5.53 0.105 3.88c0 1.571-0.695 2.746-2.009 3.41-1.048 0.529-2.255 0.608-2.882 0.608 0 0 0 0 0 0-0.327 0-0.53-0.021-0.53-0.021-0.255-0.026-0.451-0.241-0.451-0.498v-13.661c0-3.688 1.892-7.076 5.061-9.063 1.751-1.101 3.784-1.683 5.878-1.683 6.032 0 10.939 4.821 10.939 10.747v13.662c0 0.252-0.189 0.465-0.439 0.496-0.001-0.001-0.27 0.032-0.685 0.032zM15.86 8.374c2.607 0 6.065 4.181 6.065 7.333l0.211 6.027 0.034 3.497c0 2.537 2.283 2.915 3.645 2.915 0.043 0 0.084 0 0.123-0.001v-13.19c0-5.375-4.459-9.747-9.939-9.747-1.905 0-3.754 0.529-5.346 1.53-2.875 1.804-4.592 4.875-4.592 8.217v13.18c0.543-0.001 1.56-0.069 2.413-0.5 0.983-0.496 1.46-1.315 1.46-2.504l-0.105-3.877-0.037-5.544c0-3.155 3.459-7.336 6.068-7.336z" fill="#ffffff"/><path d="M16.209 23.582c-0.737 0-1.167-0.123-1.438-0.411-0.302-0.321-0.277-0.717-0.257-1.034 0.005-0.077 0.010-0.157 0.010-0.24 0-0.928 0.756-1.682 1.685-1.682 0.928 0 1.683 0.754 1.683 1.682 0 0.083 0.006 0.163 0.010 0.241 0.021 0.317 0.045 0.712-0.257 1.033-0.271 0.288-0.7 0.411-1.436 0.411zM15.513 22.503c0.013 0 0.16 0.079 0.696 0.079 0.583 0 0.705-0.094 0.71-0.099 0.001-0.023-0.009-0.18-0.015-0.283-0.006-0.098-0.012-0.199-0.012-0.304 0-0.376-0.306-0.682-0.683-0.682-0.377 0-0.685 0.306-0.685 0.682 0 0.104-0.006 0.206-0.012 0.304-0.006 0.102-0.016 0.256 0.001 0.303-0.001 0-0.001 0 0 0z" fill="#ffffff"/><path d="M16.197 25.635c-0.132 0-0.262 0-0.396 0-0.026 0-0.051-0.002-0.076-0.006-2.247-0.056-3.761-0.523-5.001-1.532-0.027-0.022-0.052-0.047-0.074-0.074l-0.176-0.219c-0.071-0.089-0.11-0.199-0.11-0.313 0-2.69 2.528-4.879 5.635-4.879 3.107 0 5.635 2.188 5.635 4.879 0 0.113-0.039 0.224-0.109 0.312l-0.175 0.219c-0.022 0.027-0.048 0.053-0.075 0.075-1.241 1.009-2.754 1.477-5.001 1.532-0.026 0.004-0.051 0.006-0.077 0.006zM11.396 23.354c1.093 0.871 2.481 1.258 4.604 1.28 2.122-0.022 3.51-0.409 4.603-1.28l0.027-0.033c-0.107-2.061-2.144-3.709-4.631-3.709s-4.523 1.648-4.63 3.708l0.027 0.034z" fill="#ffffff"/><path d="M13.911 15.299c-0.833 0-1.51-0.677-1.51-1.51 0-0.831 0.677-1.507 1.51-1.507s1.51 0.676 1.51 1.507c0 0.833-0.677 1.51-1.51 1.51zM13.911 13.282c-0.281 0-0.51 0.228-0.51 0.507 0 0.281 0.229 0.51 0.51 0.51s0.51-0.229 0.51-0.51c0-0.279-0.229-0.507-0.51-0.507z" fill="#ffffff"/><path d="M18.017 15.16c-0.831 0-1.507-0.677-1.507-1.51 0-0.832 0.676-1.509 1.507-1.509 0.832 0 1.51 0.677 1.51 1.509-0.001 0.833-0.678 1.51-1.51 1.51zM18.017 13.142c-0.279 0-0.507 0.228-0.507 0.509s0.228 0.51 0.507 0.51c0.281 0 0.51-0.229 0.51-0.51-0.001-0.281-0.229-0.509-0.51-0.509z" fill="#ffffff"/></svg>